<svg width="260" height="174" viewBox="0 0 260 174" fill="none" xmlns="http://www.w3.org/2000/svg">
<path fill-rule="evenodd" clip-rule="evenodd" d="M121.756 7.3974C126.99 9.71794 133.01 9.71794 138.244 7.3974C148.971 2.64192 160.844 0 173.333 0C221.198 0 260 38.802 260 86.6667C260 134.531 221.198 173.333 173.333 173.333C160.844 173.333 148.971 170.691 138.244 165.936C133.01 163.615 126.99 163.615 121.756 165.936C111.029 170.691 99.1562 173.333 86.6667 173.333C38.802 173.333 -3.05176e-05 134.531 -3.05176e-05 86.6667C-3.05176e-05 38.802 38.802 1.90735e-06 86.6667 1.90735e-06C99.1562 1.90735e-06 111.029 2.64192 121.756 7.3974ZM7.99997 86.6667C7.99997 130.113 43.2202 165.333 86.6667 165.333C130.113 165.333 165.333 130.113 165.333 86.6667C165.333 43.2203 130.113 8 86.6667 8C43.2202 8 7.99997 43.2203 7.99997 86.6667Z" fill="#E0FFFF"/>
</svg>
